<svg xmlns="http://www.w3.org/2000/svg" width="53" height="94" viewBox="0 0 53 94">
    <g fill="#FFF" fill-rule="evenodd">
        <path fill-rule="nonzero" d="M33.912 68.35c.992-.46 1.974-.958 2.961-1.45.913-.454 1.101-1.646.655-2.472-1.206-2.232-2.992-4.19-4.765-6.038 17.195-4.62 23.021-24.44 19.035-40.144C47.088-.316 24.945-4.682 9.958 4.996-12.96 19.79 8.423 65.436 26.56 60.865c-.246 2.387-.727 4.72-1.203 7.137-.213 1.086.491 2.282 1.726 2.241 1.4-.047 2.719-.333 3.996-.752.941 3.183 4.525 4.907 7.86 6.289 6.03 2.497 8.437 6.814 3.419 12.414-3.04 3.392-8.384 1.483-11.848.007-4.356-1.856-25.928-18.504-28.008-6.427-.355 2.059 2.138 3.14 3.373 1.407 3.384-4.747 13.898 3.89 17.55 5.964 5.336 3.03 11.838 6.28 18.075 4.192 5.49-1.836 8.804-9.172 7.3-14.47-1.857-6.531-12.261-5.314-14.89-10.518zm-6.806-11.91C7.423 60.625-2.3 23.177 10.074 10.31c11.823-12.295 32.765-6.1 37.618 9.057 4.324 13.506-1.926 31.608-16.74 35.169-.759.182-1.182.65-1.378 1.198-.558.211-1.106.37-1.65.516a1.114 1.114 0 0 0-.818.19zm2.09 3.473c.06.088.096.186.174.266 1.377 1.404 2.814 2.853 3.977 4.465-1.37.698-2.76 1.35-4.235 1.73.213-2.15.301-4.321.083-6.46z"/>
        <path d="M42.595 24.109c-1.041-.317-1.676.135-2.439.391-.824.276-1.66.516-2.494.762-.804.237-1.629.47-2.4.799-.308.131-.755.44-.896.77.074-.174.463-.588-.115.02-.506.533-.543 1.412 0 1.94.277.269.608.348.957.354.442.167.919.18 1.382.103 1.765 6.568-.345 12.551-7.504 14.292-2.64.642-5.502.202-7.816-1.199-3.123-1.892-3.224-5.543-3.238-8.79a1.71 1.71 0 0 0-.099-.517c1.442.161 3.398.53 4.45-.598.846-.907.68-2.34-.384-2.996-1.15-.71-3.33-.347-4.662-.414-1.44-.072-3.208-.272-4.486.538-1.716 1.088-.629 4.048 1.416 3.38l.136-.043c-.337.033-.225.016.336-.053-.091.014-.044.017.039.017-.036.079-.09.139-.115.228-2.697 9.287 5.585 16.052 14.293 14.745 9.708-1.456 14.386-10.307 11.872-19.302 1.194-.233 2.405-.625 2.922-1.572a1.974 1.974 0 0 0-1.155-2.855zM20 21.54c.012-1.009-.2-2.003-.346-3.005a18.862 18.862 0 0 0-.127-1.803c.046-.944-.804-1.732-1.691-1.732-1.012 0-1.573.796-1.692 1.732-.126 1-.117 2.005-.138 3.012-.022 1.041-.03 2.075.777 2.836.509.48 1.187.54 1.758.226.24.06.275.044.21 0 .317.108.682.032.853-.28.025-.045.018-.097.034-.144.21-.24.357-.547.361-.843zM36.815 13.887c.005-.056 0-.112.006-.168.225-1.963-3.243-2.412-3.574-.467-.265 1.56-.258 3.24-.24 4.819.008.644.367 1.362.989 1.66.746.359 1.266.359 2.012 0 .622-.298.98-1.016.988-1.66.015-1.37-.009-2.807-.18-4.184z"/>
    </g>
</svg>
