<svg xmlns="http://www.w3.org/2000/svg" width="34" height="40" viewBox="0 0 34 40">
    <path fill="#FFF" fill-rule="evenodd" d="M4.234 37.576c.163-.437.586-1.127.238-1.696-1.174-.136-1.017 1.074-1.8 1.334.21-.96.725-1.612 1.081-2.424.285-.764 1.067-1.527.84-2.425-.666-.146-.729.315-1.08.486-.036.247-.325.237-.361.484-.036.108-.323.531-.358.244v-1.334c.546-.74.877-1.7 1.44-2.424.225-.917 1.118-1.76.84-2.787-.823-.07-1.109.525-1.32.97-.488.316-.573 1.036-.96 1.454v-1.939c.442-1.249 1.142-2.24 1.318-3.758-.522-.082-.664.22-.84.486-.275.1-.28.791-.6.484.099-2.365.93-3.99 1.321-6.058-.453-.053-.548.257-.72.484-.276.015-.387.81-.601.485-.36-.483.11-.964.36-1.212.086-.56.244-1.048.48-1.454.135-1.01 1.04-1.84.722-2.909-.687-.087-.969.235-1.082.727-.428.275-.387 1.034-.839 1.091.532-.917.357-2.547.839-3.514.11-.617.421-1.03.48-1.696.218-.388.77-.945.48-1.454-.946-.189-.815.71-1.318.969-.207.559-.42 1.111-.722 1.576-.015-1.439-.259-2.647-.36-4 .307.014.42.222.601.364.308.012.572.07.72.242.63-.07.908.213 1.56.121.343-.259.68-.525.72-1.09-.075-1.38-2.22-.667-2.761-1.576-.255-.51-.058-1.476-.12-2.18.256-.31.423-.705.72-.97.884-.044 1.65.03 2.4.12 2.188-.336 5.182.142 7.202-.362 2.032-.066 4.039.033 6.001.12 2.754.123 5.426-.234 8.162-.242.826-.215 1.993-.088 3-.12.701-.182 1.532-.232 1.561-1.092.086-.37-.122-.442-.12-.725-.412-.554-1.607-.318-2.52-.365-.735.268-1.95.051-2.881.122-2.228.213-4.444.441-6.961.362-2.096.146-4.12.366-6.362.364-2.437.61-5.803.28-8.76.364-.373-.012-.575.147-.842.243-.3-.103-.643-.16-1.08-.122C1.08 1.996.445 2.892.513 4.496c-.037.285-.416.224-.36.605.052.417-.047.68-.12.97-.13 3.85.182 7.249.24 10.906.643 6.218.324 13.406.6 19.994.378.389.394 1.137.72 1.575.451.394.97.718 1.68.849.49.254 1.595.402 2.042 0 .202-.35.335-.898.119-1.333-.197-.367-.886-.236-1.2-.486zm0-31.868c.346.479 1.551 1.118 2.04.362.077-.684-.48-.728-.842-.969-.088-.777.14-1.232.12-1.939-1.316-.505-1.406 1.234-1.318 2.546zm25.084-2.546c-.257.267-.855.187-.841.727.354.37 1.043.4 1.801.364.754-.006 1.582.063 1.56-.727-.37-.791-1.612-.357-2.52-.364zm4.44 32.113c-.126-.613.274-.693.24-1.212-.025-.58-.745-.458-.6-1.212.13-6.439.506-13.104-.36-19.024v-3.393c.131-.918.534-1.561.481-2.666-.594-.792-1.454-.672-2.76-.606-1.025.177-1.982.424-3.12.484-.118-1.054-.008-2.335-.361-3.15-1.27-1.02-4.1-.467-6.243-.606-.95.333-2.451.109-3.36.484-.183.866-.463 1.633-.36 2.788-.324-.28-.781-.423-1.44-.363h-3.361c-1.742.38-4.165.076-5.4.97-.365-.16-.281-.767-.96-.607-.554.856-.304 2.521-.602 3.635.024 5.73-.446 11.416 0 16.843.075.903.202 1.77.24 2.667.041.918-.08 1.84-.12 2.787-.07 1.7.054 3.386 0 5.09.271.332.87.333.96.847.684.198 1.343.423 2.042.607 4.642.061 9.407.176 14.042 0 2 .672 4.665.192 7.081.243.148-.256.723-.079.84-.364.37-.032.54-.263.84-.364.55-.09 1.182-.1 1.68-.241.154-.292.438-.447.361-.972.207-.275.496-.466.48-.968-.016-.63-.223-1.067-.24-1.697zM31.359 9.1c-.019.87-.199 1.577-.24 2.424-.599-.446-1.11-.979-1.08-2.06.017-.55.814-.31 1.32-.364zm-5.162-2.908c.022.83.007 1.622-.12 2.302.032.396-.464.257-.48.607-.224.136-.255.47-.48.605-.27.455-.493.957-.84 1.334-.423 1.027-1.146 1.75-1.56 2.787-.45.353-.85.757-1.2 1.212-.327-.11.121-.425.12-.607.208-.074-.01-.575.24-.606a.843.843 0 0 0-.601-.605 79.772 79.772 0 0 1 4.8-7.15c.104-.023.115.047.121.121zm-.12 9.21c-.032.41-.19.696-.119 1.212-1.106-.503-.207-1.682 0-2.546.275.208.044.925.12 1.334zm-1.32-.727c-.364-.116-.26-.707-.48-.97.418-1.073 1.167-1.811 1.561-2.909.14-.019.214.027.24.121v2.788c-.695-.377-1.069.507-1.32.97zm-3.48.605c-.062-.062.086-.154.12-.12.063.062-.086.154-.12.12zm3.6-9.452c-.287.72-.977 1.032-1.2 1.817-.56.445-.829 1.183-1.32 1.697-.36.646-.758 1.254-1.2 1.817-.295.674-.826 1.105-1.08 1.818-.274-.168-.044-.843-.12-1.21 1.176-2.004 2.29-4.071 3.6-5.939h1.32zm-5.16 0c.213.09.017.221 0 .364-.214-.088-.016-.22 0-.364zm-.12 2.06c.507-.659.95-1.385 1.44-2.06h1.32c-.081.443-.455.592-.598.97-.304.219-.343.706-.723.848-.345.7-.921 1.17-1.198 1.94-.348-.297-.217-1.076-.241-1.697zm9.96 27.872c-.558.243-.585 1.024-1.079 1.332h-3.72c-4.7.896-10.75.39-15.724.122-.83.048-1.302.461-2.279.362-.07-.636.211-.917.12-1.574.499-.062.497-.629.72-.97.348-.86.33-2.091.479-3.151-.44-4.846-.563-10.014-.48-15.39.095-.498-.183-.621-.12-1.09.014-2.155.024-4.306-.359-6.06V8.01c.101-.022.113.046.12.121.606.196 1.258.345 1.92.486 2.135-.05 4.447-.488 6.602-.122.672.072 1.137-.064 1.56-.242.057 2.284.078 4.607.24 6.786-.063 1.235.267 2.074.24 3.272-.062.67.07 1.142.122 1.696-.009.573-.021 1.15.358 1.333.228-.054.725.164.601-.242.177-.064.302-.18.48-.243.348-.175.463-.582.72-.848.43-.617.715-1.378 1.08-2.06.275-.208.607-.357.841-.606.366-.114.376-.59.84-.606.559.73 1.317 1.256 1.8 2.06.85.355 1.196 1.216 2.28 1.333.822-.381.362-2.058.481-3.15-.094-.5.184-.621.12-1.091v-5.453c.121-.59-.206-1.158 0-1.454.228.214.793.088 1.2.121-.3 2.485 1.027 3.327 2.4 4.12.65 6.412.746 13.384.961 20.237-.028.376-.426.378-.72.486-.193.208-.449.355-.72.483-.274.535-.91.7-1.083 1.334zm2.761 1.211h-1.919c.397-.608 1.024-.984 1.56-1.455.14-.018.213.028.24.122-.093.578.188.78.12 1.333zm-3.12-31.87c.544.454 2.74.95 3.001-.121-.03-.334-.446-.277-.6-.484-.896.092-1.929.099-2.4.605zm.72 1.091c-.087.276-.684.037-.6.484.169.477 1.138.144 1.68.242.311-.21 1.024-.016.96-.604-.454-.527-1.298-.035-2.04-.122z"/>
</svg>
