<svg xmlns="http://www.w3.org/2000/svg" width="64" height="94" viewBox="0 0 64 94">
    <g fill="#FFF" fill-rule="evenodd">
        <path fill-rule="nonzero" d="M24.871 39.594c-.636-2.533-3.606-4.302-6.555-3.317a4.682 4.682 0 0 0-2.694 2.297 3.754 3.754 0 0 0-.573 2.68c.382 2.424 3.097 4.101 5.897 3.682 2.907-.438 4.54-2.972 3.925-5.342zm-2.036 2.808c-2.207 2.807-7.277.693-6.471-2.516.36-1.458 1.93-2.643 3.713-2.534 2.715.182 4.264 3.117 2.758 5.05zM47.871 39.594c-.636-2.533-3.606-4.302-6.555-3.317a4.682 4.682 0 0 0-2.694 2.297 3.754 3.754 0 0 0-.573 2.68c.403 2.424 3.118 4.101 5.897 3.682 2.907-.438 4.54-2.972 3.925-5.342zm-2.036 2.808c-2.207 2.807-7.256.693-6.471-2.516.36-1.458 1.93-2.643 3.713-2.534 2.715.182 4.264 3.117 2.758 5.05zM35.504 40.233c-.453-.97-1.36-2.627-2.36-3.103-.945-.437-1.7.305-2.172 1.066-.264.42-.51.857-.755 1.295a7.787 7.787 0 0 0-.642 1.085c-.378.78-.964 1.922-.208 2.664.736.705 2.36.705 3.304.743.945.038 2.455.095 3.06-.819.547-.818.15-2.132-.227-2.931zm-.85 2.132c-.32.533-1.661.342-2.152.323a8.273 8.273 0 0 1-1.379-.171c-.453-.076-.85-.019-.83-.609 0-.133.018-.286.075-.419.245-.457.472-.932.717-1.39.208-.36.85-1.636 1.36-1.636.302 0 1.322 1.618 1.454 1.827.227.362 1.039 1.599.755 2.075zM45.753 48.97c-1.062-2.414-4.614-2.563-6.893-2.694a104.402 104.402 0 0 0-7.26-.131 60.164 60.164 0 0 0-6.622-.094c-2.337.112-5.523.225-7.183 2.077-1.39 1.553-.85 3.65.791 4.79 2.066 1.442 5.194 1.573 7.647 1.778a82.17 82.17 0 0 0 8.862.281c2.645-.075 5.58-.262 8.052-1.291 1.834-.767 3.495-2.695 2.606-4.716zm-24.116 3.836c-.212-.056-.425-.093-.637-.15-.946-.261-2.008-.654-2.49-1.553-.619-1.178.27-2.264 1.35-2.732a9.201 9.201 0 0 1 1.932-.58c-.078 1.666-.193 3.35-.155 5.015zm4.962.655a39.074 39.074 0 0 1-3.63-.374v-.019c.078-1.796-.077-3.63-.154-5.426 1.294-.15 2.645-.15 3.862-.188-.174 1.984-.174 4.024-.078 6.007zm4.48.169c-.946-.019-1.873-.056-2.819-.094-.154 0-.309-.019-.463-.019.019-2.02-.058-4.079-.329-6.081 1.275 0 2.55.018 3.804.075-.058 2.04-.154 4.079-.193 6.119zm5-.056c-.27.018-.52.018-.79.037-.947.037-1.912.037-2.858.037a659.26 659.26 0 0 0-.155-6.1c1.352.056 2.723.15 4.074.225-.116 1.927-.309 3.873-.27 5.8zm4.19-.468c-.945.187-1.91.318-2.876.393-.058-1.89-.251-3.78-.328-5.689 1.216.094 2.452.15 3.668.206-.193 1.684-.328 3.387-.463 5.09zm4.249-2.807c-.078 1.216-1.294 1.946-2.356 2.302-.154.056-.309.093-.463.15a74.982 74.982 0 0 1-.02-4.66c.444.056.87.13 1.294.3.792.317 1.603 1.01 1.545 1.908zM19.819 76.164c-1.876.463-3.384 2.055-3.69 3.794-.142.481-.163 1-.081 1.555.387 2.313 2.792 3.868 5.34 3.405 5.524-1.018 4.485-10.253-1.57-8.754zm3.343 5.534c-.755 2.073-3.71 2.61-5.178.796-.978-1.222-.856-2.795.04-3.942a3.798 3.798 0 0 1 2.447-1.13c2.589-.184 3.363 2.444 2.69 4.276z"/>
        <path d="M21.922 78.312c-.184.374-.368.726-.553 1.1-.165.352-.386.704-.368 1.144 0 .264.221.528.442.418.369-.176.553-.506.774-.88.24-.352.46-.726.681-1.1.424-.682-.59-1.43-.976-.682z"/>
        <path fill-rule="nonzero" d="M35.862 79.958c-.305-1.74-1.812-3.331-3.686-3.794-6.048-1.499-7.086 7.736-1.568 8.754 2.546.463 4.949-1.092 5.335-3.405a3.303 3.303 0 0 0-.081-1.555zm-1.853 2.536c-1.446 1.814-4.419 1.277-5.172-.796-.672-1.832.101-4.46 2.688-4.275.977.074 1.832.5 2.443 1.129.876 1.147.998 2.72.04 3.942z"/>
        <path d="M31.63 79.434c-.185-.396-.37-.77-.554-1.122-.389-.749-1.387 0-.98.682.222.374.443.748.684 1.1.24.352.406.704.776.88.222.11.444-.154.444-.396 0-.44-.203-.77-.37-1.144z"/>
        <path fill-rule="nonzero" d="M31.485 86.21c-2.067-.08-4.172-.193-6.238-.065l-3.457-.096c-.889-.016-1.797-.048-2.704-.048-.676 0-1.449-.032-2.067.224-.888.368-1.448 1.44-.598 2.065.386.288.888.32 1.39.336 1.024.048 2.067.032 3.09.064 1.99.048 3.998.096 5.987.16 1.932.048 3.902.208 5.814.128 1.042-.032 2.317-.512 2.298-1.536-.02-1.409-2.376-1.185-3.515-1.233zm2.066 1.744c-.328.256-1.043.176-1.448.176-3.477-.032-6.953-.128-10.449-.208-.907-.016-1.796-.048-2.703-.064-.31 0-.87.048-1.16-.032-.424.048-.579-.176-.463-.672.193-.08.387-.128.599-.128.753-.08 1.564.016 2.318.032.907.016 1.796.016 2.703.016 2.84-.016 5.678 0 8.517-.032.406.032.812.048 1.198.08.232.016 1.893.048.888.832z"/>
        <path fill-rule="nonzero" d="M63.887 79.016c-.197-2.937-.59-6.05-1.692-8.81-.984-2.483-2.813-4.158-5.351-4.986-2.617-.848-5.549-.867-8.264-1.025a202.437 202.437 0 0 0-6.945-.276c-.157-1.419-.433-2.818-.61-4.218a74.722 74.722 0 0 0 5.194-.59c2.302-.336 4.407-1.085 5.745-3.115 1.338-2.03 1.673-4.631 1.948-6.996.335-2.957.335-5.972.197-8.948-.118-2.74-.236-5.558-.689-8.258-.433-2.602-2.026-4.494-4.564-5.203-2.302-.65-4.82-.552-7.22-.513-1.358-2.483-3.936-4.218-6.71-5.045.079-.946-.098-1.932-.177-2.858a83.594 83.594 0 0 1-.177-3.134c-.098-1.951-.197-3.902-.236-5.834 1.79-1.399 2.735-4.217 2.085-6.228-.432-1.36-1.455-2.325-2.833-2.7-1.298-.354-3.128-.453-4.328.197-1.141.611-2.007 1.656-2.46 2.858a3.954 3.954 0 0 0-.432 2.405c.098.71.393 1.38.787 1.95.04.06.078.12.118.178l.02.02c.039.059.078.098.118.158.275.315.57.61.905.867-.276 1.852-.02 3.922.039 5.774.059 2.03.02 4.12.236 6.15-1.2.276-2.36.749-3.423 1.36-1.83 1.064-3.168 2.384-4.132 4.198-3.227.197-6.414.847-8.913 2.838-4.289 3.429-3.285 9.164-2.911 13.973l.708 9.066c.177 2.286.511 4.533 2.715 5.735 2.282 1.262 5.253 1.498 7.791 1.794l1.063.118c-.119 1.262.039 2.66.059 3.903-.866.02-1.732.039-2.617.078-3.463.138-7.063.316-10.428 1.163-2.852.73-6.158 2.168-7.142 5.203-.53 1.597-.432 3.41-.491 5.066-.06 1.852-.118 3.725-.177 5.577l-.178 6.169c-.137.966-.295 1.931-.432 2.897-.177 1.124-.158 2.464.964 3.114 1.101.63 2.872.316 4.092.335l5.155.06c3.305.039 6.61.078 9.916.137 6.61.099 13.201.178 19.812.276 6.433.08 12.946.276 19.36-.236 1.14-.099 2.36-.296 3.207-1.163 1.082-1.084 1.042-2.68 1.14-4.1.256-3.113.375-6.247.158-9.38zM27.961 5.266c-.078-1.045.433-2.09 1.28-2.7 1.278-.946 3.934-.887 4.957.453.728.926.551 2.247.06 3.232-.571 1.163-1.437 2.188-2.834 2.07-1.613-.138-3.325-1.301-3.463-3.055zm4.88 13.106c.02.73-.02 1.498.059 2.227a11.799 11.799 0 0 0-1.653-.098c-.197 0-.393.02-.59.02-.02-1.952-.256-3.923-.394-5.854-.078-1.045-.157-2.07-.236-3.114-.059-.611-.078-1.222-.157-1.813.905.335 1.869.453 2.813.256.138-.02.256-.06.374-.099-.118 1.774-.216 3.548-.236 5.341 0 1.065 0 2.09.02 3.134zm-1.732 4.395c1.692-.059 3.384.296 4.88 1.084a8.472 8.472 0 0 1 2.715 2.247c-3.916 0-7.83.079-11.746.256-1.298-.02-2.636-.059-3.994-.02 2.341-1.911 5.135-3.449 8.145-3.567zM17.593 57.08c-1.062-.217-2.184-.414-3.207-.808-1.16-.433-1.77-1.182-2.007-2.385-.492-2.444-.492-5.045-.728-7.528-.236-2.543-.511-5.105-.669-7.647-.157-2.306-.118-4.849 1.417-6.721 1.515-1.892 3.935-2.74 6.256-3.134 2.912-.493 5.942-.552 8.874-.65 6-.178 11.981-.08 17.982.177.158 0 .256-.04.354-.118 1.377.138 2.814.433 3.876 1.3.787.651 1.102 1.597 1.26 2.582.196 1.321.235 2.68.334 4.001.197 2.602.393 5.204.413 7.805.02 2.543-.079 5.124-.512 7.627-.354 2.07-1.042 4.12-3.167 4.908-2.282.847-4.978.907-7.398 1.044-2.538.158-5.076.237-7.614.316-5.174.197-10.388.236-15.464-.769zm21.839 4.376c-2.755-.138-5.549-.02-8.303-.02-2.597 0-5.233-.118-7.83.059v-.02c-.04-.473-.06-.965-.118-1.439a72.26 72.26 0 0 0 5.843.119c3.482-.04 7.004-.119 10.506-.335-.04.552-.079 1.103-.098 1.636zm.039 2.443c-.256 0-.492-.02-.748-.02-5.056-.078-10.112-.157-15.169-.098-.039-.433-.098-.887-.137-1.32 2.557.216 5.174.177 7.732.236 2.754.079 5.528.256 8.283.197 0 .335 0 .67.039 1.005zm6.138 27.652c-.668 0-1.357 0-2.026-.02l-4.722-.059.06-2.266c2.281.236 4.564.512 6.866.551-.08.611-.118 1.203-.178 1.794zm.256-2.996c-2.302-.197-4.643-.098-6.945 0 .02-1.182.04-2.365.079-3.547 2.302.413 4.722.433 7.063.532-.059 1.005-.118 2.01-.197 3.015zm.335-5.853a42.28 42.28 0 0 1-.079 1.576c-2.322-.256-4.82-.414-7.122.04 0-.256.02-.493.02-.75l.059-2.778c2.36.256 4.78.473 7.161.414 0 .493-.02 1.005-.04 1.498zm.098-2.543c-2.38-.157-4.8-.138-7.181-.217 0-.354.02-.71.02-1.064 0-.217-.08-1.064.039-1.163.157-.118.511-.04.708-.059.787-.04 1.574-.059 2.38-.059.945 0 1.89.099 2.834 0 .354-.04.748-.02 1.003.217.295.276.414 2.365.197 2.345zm3.58 3.686c-.078 2.562-.098 5.144-.255 7.706-.846 0-1.692.02-2.538.02.256-3.666.472-7.332.531-11.018.02-.906.099-1.852.02-2.74-.04-.433-.098-.847-.492-1.123-.511-.354-1.357-.256-1.928-.275a65.13 65.13 0 0 0-2.774-.06c-.925 0-1.85.02-2.774.08-.531.039-1.161.019-1.535.472-.354.434-.275 1.104-.295 1.616-.04.907-.059 1.814-.079 2.72-.098 3.41-.039 6.84.158 10.249-4.053-.06-8.086-.118-12.14-.158l-12.63-.177c.393-3.942.236-7.903.59-11.845.118-1.163.216-2.346.472-3.489.275-1.163.885-1.774 2.026-2.089 2.106-.571 4.526-.433 6.69-.433 4.741-.04 9.503.078 14.244.236 2.4.079 4.8.197 7.201.394 1.16.099 2.322.197 3.482.335.473.06 1.023.02 1.456.197.689.276.65.808.689 1.479.197 2.581-.04 5.262-.118 7.903zm11.609-.71c-.04 1.38-.099 2.76-.197 4.14-.059.906.157 3.153-.787 3.626-1.023.512-2.558.374-3.66.433a103.93 103.93 0 0 1-4.288.158c-.414.02-.827.02-1.24.02 0-5.125.59-10.308.276-15.433-.06-.867-.06-1.911-.728-2.562-.67-.65-1.712-.65-2.578-.749-2.715-.295-5.43-.473-8.145-.571-5.312-.217-10.664-.276-15.976-.256-2.479.02-5.076-.08-7.535.295-1.909.296-3.305 1.242-3.758 3.173-1.22 5.105-.55 10.505-.511 15.728-2.243-.04-4.467-.06-6.71-.099-.786-.02-1.593-.02-2.38-.039-.098 0-.669.06-.925.04.099-.099.079-.611.079-.69.177-1.557.354-3.114.452-4.671.099-1.99.118-3.962.04-5.933.137-1.99.256-4 .374-5.991.059-1.222.039-2.582.767-3.627.728-1.044 1.967-1.675 3.128-2.148 2.617-1.044 5.509-1.32 8.303-1.537 5.902-.453 11.844-.335 17.746-.296 5.922.04 11.864.178 17.766.65 2.283.178 4.82.277 6.808 1.538 2.144 1.34 2.734 4.1 3.167 6.425.472 2.74.57 5.578.512 8.376z"/>
    </g>
</svg>
