<svg xmlns="http://www.w3.org/2000/svg" width="41" height="46" viewBox="0 0 41 46">
    <path fill="#FFF" fill-rule="evenodd" d="M40.815 16.315c-.05-.118-.035-.268-.033-.402.01-.951-.13-1.888-.3-2.818-.264-1.433-.745-2.77-1.676-3.933a15.415 15.415 0 0 1-1.351-2.022c-1.152-2.027-2.848-3.474-4.845-4.604-1.38-.782-2.849-1.375-4.337-1.91C27.208.244 26.104-.004 24.96 0c-1.446.004-2.893.024-4.34.015-1.004-.007-1.973.167-2.94.416-1.935.5-3.768 1.267-5.568 2.106a11.478 11.478 0 0 0-2.917 1.957c-1.908 1.752-3.233 3.848-3.981 6.332-.543 1.8-.744 3.62-.473 5.472.07.489.011.893-.209 1.288-.218.392-.483.76-.743 1.127-.34.48-.685.953-1.042 1.418-.411.535-.818 1.076-1.262 1.583a7.657 7.657 0 0 0-1.293 2.05c-.167.387-.21.783-.186 1.19.055.947.773 1.707 1.725 1.777.54.04 1.084-.01 1.627-.02.65-.015.87.129 1.104.76.077.21.168.432.168.649-.003.69.176 1.35.396 1.98.583 1.675.793 3.412.997 5.155.17 1.443.507 2.831 1.272 4.095.226.372.488.604.923.71.988.237 1.975.223 2.964.075.578-.086 1.143-.257 1.718-.367.679-.13.978.038 1.273.676.075.162.122.343.222.488.687 1.01 1.219 2.106 1.786 3.183.312.595.71 1.148 1.104 1.696.084.117.31.158.479.184.271.04.442-.164.363-.4-.3-.896-.57-1.802-.91-2.682-.453-1.176-.965-2.33-1.441-3.498a3.988 3.988 0 0 1-.273-.899c-.022-.143.072-.362.187-.456.384-.313.815-.566 1.199-.876.2-.163.412-.36.363-.676-.037-.232-.387-.384-.807-.324-.22.032-.452.071-.653.163-1.108.504-2.191 1.066-3.317 1.526-.783.32-1.596.618-2.477.56-1.37-.093-1.876-.527-2.023-1.877-.102-.946-.309-1.862-.555-2.776a22.37 22.37 0 0 1-.301-1.317c-.084-.411.056-.61.466-.608 1.054.002 2.06-.246 3.057-.545.343-.103.68-.242.92-.54.112-.138.091-.383-.053-.47-.543-.325-1.133-.265-1.719-.205-.493.05-.983.174-1.476.185-2.085.046-1.505.262-2-1.648-.045-.171-.004-.364-.044-.538-.177-.786-.354-1.573-.562-2.352-.1-.376-.38-.598-.781-.656-.581-.082-1.153-.189-1.751-.079-.43.079-.973.206-1.218-.285-.194-.388.154-.767.338-1.115.124-.233.343-.415.509-.628.442-.57.886-1.139 1.314-1.72.454-.617.833-1.3 1.345-1.863 1.067-1.173 1.364-2.644 1.588-4.097.163-1.061.358-2.127.452-3.202.044-.499.237-.951.406-1.42.373-1.035 1.019-1.899 1.607-2.806 1.343-2.069 3.3-3.334 5.571-4.086 2.329-.772 4.781-.938 7.218-1.06 2.053-.1 4.028.386 6 .917 1.784.479 3.295 1.444 4.814 2.42.188.12.354.28.516.437.583.563 1.115 1.174 1.816 1.617.288.182.492.523.688.822a15.221 15.221 0 0 1 2.292 5.73c.357 1.965.22 3.854-.574 5.686a61 61 0 0 1-1.254 2.692c-.775 1.576-1.52 3.168-2.457 4.659-.791 1.26-1.575 2.52-2.697 3.539-.358.325-.623.767-.873 1.19-.13.22-.155.511-.193.776-.04.287.214.513.502.467.195-.03.387-.074.581-.114l.043-.052c.034-.015.07-.028.102-.047.02-.012.033-.035.05-.052l-.114.136-.08.015c-.18.227-.376.444-.522.69-.251.424-.491.859-.681 1.312-.141.338.284.745.641.632.384-.123.753-.29 1.135-.42.047-.015.141.08.2.14.023.025.03.103.01.129-.17.207-.333.422-.525.608-.361.351-.657.74-.838 1.215-.12.317-.098.514.131.732.172.165.368.256.611.159.126-.05.25-.105.378-.15.468-.17.559-.115.635.314.066.37.08.713-.214 1.006-.094.094-.162.217-.228.336-.153.271-.09.597.199.67.44.111.734.29.822.768.033.175.237.255.437.23.671-.081.84-.276.84-.824-.002-1.397 0-2.795-.002-4.193 0-1.624.008-3.247-.01-4.87a2.282 2.282 0 0 1 .52-1.499c.989-1.243 1.694-2.662 2.47-4.032.731-1.293 1.337-2.657 1.976-4 .542-1.142.995-2.315 1.262-3.558.188-.88.48-1.744.1-2.643zm-10.517 2.006c-.177-.663-.493-1.25-.904-1.8-.326-.438-.313-.55.025-.944.292-.343.614-.661.93-.983.512-.52.945-1.096 1.227-1.77.137-.327.228-.674.302-.893-.019-.318-.008-.503-.044-.677-.136-.66-.446-1.179-1.173-1.327-.22-.044-.44-.146-.658-.145-.812.006-1.629-.108-2.434.092-.175.044-.357.06-.536.078-.305.03-.503-.115-.6-.42-.206-.641-.403-1.287-.623-1.923-.211-.61-.592-1.112-1.058-1.552a2.078 2.078 0 0 0-.947-.5c-.234-.06-.453-.067-.652.056-1.24.77-2.38 1.642-3.018 3.013-.095.204-.184.413-.297.608-.1.174-.288.252-.461.157-.77-.422-1.627-.51-2.465-.675-.621-.123-1.163-.013-1.587.503-.171.207-.401.367-.577.57a2.604 2.604 0 0 0-.643 1.6c-.058.975.269 1.78 1.062 2.354.486.352.855.798 1.215 1.26.176.227.16.368-.086.554-.25.19-.5.395-.778.537-1.146.58-1.553 1.582-1.62 2.774-.055 1.015.375 1.653 1.381 1.871.783.17 1.585.413 2.406.123.167-.06.358-.053.538-.064.244-.016.446.056.528.314.238.75.666 1.375 1.258 1.892 1.252 1.094 2.884 1.03 3.972-.217.41-.468.705-1.04 1.028-1.579.263-.44.372-.514.861-.39.394.1.78.235 1.174.332.304.074.617.143.928.16.961.055 1.616-.483 2.168-1.18.445-.562.324-1.186.158-1.809zm-11.85-.098c0 .223.006.446 0 .67-.013.355-.092.468-.45.549-.477.107-.957.243-1.441.268-.725.038-1.287-.433-1.471-1.125-.098-.37.091-.85.411-1.04.652-.39 1.304-.777 1.955-1.168a.442.442 0 0 1 .602.097c.163.197.326.438.37.68.062.347.016.712.016 1.069h.008zm.569-6.097c-.09.486-.188.97-.263 1.457-.042.277-.134.514-.335.714-.176.174-.412.225-.6.089a69.569 69.569 0 0 0-1.64-1.168c-.745-.51-.968-1.354-.72-2.141.225-.718.862-1.175 1.72-1.164.085.018.267.037.434.097.168.06.353.129.475.249.33.328 1.033.049 1.14.566.082.403-.13.865-.211 1.301zm1.917-2.424c.32-1.16.937-2.116 1.942-2.804.389-.266.787-.227 1.088.095.563.6 1.35 2.399 1.382 3.256-.055.068-.133.25-.269.32-.517.263-1.049.503-1.587.722-.154.062-.378.086-.52.02a23.674 23.674 0 0 1-1.785-.908c-.249-.141-.332-.404-.25-.7zm-.812 2.81c.017-.176.027-.353.052-.527.079-.553.253-.62.771-.301.187.115.378.225.562.346.198.13.189.267-.035.4a31.94 31.94 0 0 1-1.037.59c-.178.096-.313-.014-.313-.244v-.264zm-.252 6.414c-.049-.122-.053-.261-.075-.389.014-.14.008-.28.048-.404s.127-.235.292-.158c.406.187.812.372 1.21.572.035.017.028.21.011.215-.428.117-.858.227-1.292.317-.055.012-.167-.084-.194-.153zm4.199 1.329c-.305.658-.66 1.288-1.223 1.76-.23.192-.531.298-.717.399-.636-.058-1.087-.253-1.425-.642-.203-.234-.358-.515-.512-.786-.146-.26-.004-.52.315-.604.825-.218 1.652-.432 2.48-.644.13-.033.267-.06.4-.058.131 0 .265.035.394.067.237.059.379.312.288.508zm1.528-5.051c-.015.185-.033.364-.043.544-.05.875-.386 1.556-1.26 1.892-.208.08-.4.205-.598.311-.219.117-.424.087-.64-.024-.882-.45-1.762-.908-2.658-1.33-.428-.202-.59-.488-.577-.954.014-.503.203-.843.652-1.08.598-.317 1.163-.692 1.761-1.004 1.436-.752.932-.786 2.214.13.293.21.552.463.834.688a.806.806 0 0 1 .315.827zm.162-2.556c-.02.19-.223.32-.36.223a2.736 2.736 0 0 1-.491-.42c-.043-.05.012-.218.065-.305.04-.063.148-.085.227-.121.396-.178.562-.072.57.361-.003.088-.002.175-.01.262zm.925-.04c.037-1.204.314-1.484 1.525-1.456.627.014 1.253.082 1.88.137.266.024.438.323.37.602-.132.535-.401.995-.768 1.4-.272.298-.54.605-.847.865-.285.241-.475.844-.93.584-.552-.317-1.24-.628-1.23-1.46.002-.224 0-.448 0-.673zm-.055 3.05c.031-.054.167-.114.192-.095.092.076.24.216.216.273-.056.14-.194.248-.297.366-.119-.087-.239-.14-.235-.18a.98.98 0 0 1 .124-.364zm.947 4.327c-.483-.069-.95-.273-1.417-.438-.276-.096-.384-.37-.295-.666.117-.392.264-.756.658-.978.353-.2.674-.451 1.014-.672.72-.47 1.444-.219 1.713.6.07.21.085.438.104.54.01 1.296-.794 1.753-1.777 1.614zm-4.396-5.983c-.634-.01-1.014.12-1.228.529-.183.351-.334.75-.368 1.139-.069.796.662 1.329 1.445 1.137.512-.126.91-.39 1.179-.838.272-.453.361-.923.07-1.404-.263-.431-.673-.577-1.098-.563z"/>
</svg>
