<svg xmlns="http://www.w3.org/2000/svg" width="85" height="84" viewBox="0 0 85 84">
    <g fill="#FFF" fill-rule="evenodd">
        <path fill-rule="nonzero" d="M36.56 8.064c-1.377-2.204-3.788-2.713-6.026-1.187-1.55 1.017-2.066 2.543-2.583 4.239-1.205 3.73-1.722 6.95-4.132 10.341v.17c-4.133.509-8.438-3.9-12.57-1.187-2.755 1.696-2.755 5.425-1.205 7.968 2.927 4.747 15.152 6.612 19.112 1.696 5.51-4.747 11.708-14.92 7.404-22.04zm-17.219 21.7c-2.927-.339-8.954-1.525-7.576-5.764 1.205-3.9 6.715-.339 9.298-.17 1.377.17 2.41-.169 3.444-.677.688.169 1.377 0 1.722-.848 1.033-2.543 1.55-5.425 2.238-8.138.172-1.017.172-2.713.86-3.56 3.789-2.374 5.683-2.374 5.683.169a4.766 4.766 0 0 1 0 2.204c-.172 5.086-2.238 9.833-5.51 13.563-.344-.17-.689-.17-.86.17-2.583 2.882-5.51 3.39-9.299 3.052z"/>
        <path d="M84.147 69.024c0-.34-.17-.509-.342-.848-1.196-1.357-2.905-3.901-4.785-2.205-.855.848-1.71 2.035-2.393 3.053-.513.509-.855 1.187-1.196 1.696 0 0 0-.17-.17-.17.854-1.186 1.537-2.544 2.05-3.73.342-.34.342-1.019 0-1.527-.854-1.018-2.05-3.054-3.589-2.545-.684.17-1.196.848-1.88 1.357-.684.678-1.538 1.357-2.222 1.865-.684-.508-1.196-1.356-1.88-1.865a15.76 15.76 0 0 0 2.393-2.374c1.196-1.188 2.564-2.375 3.76-3.732.342-.509.513-1.187 0-1.696-1.196-1.018-2.051-2.205-3.418-3.053-.17-.17-.342-.17-.342-.17-.342-.34-.855-.508-1.367-.34-2.052.85-3.59 3.054-4.957 4.58l-4.444 4.41C50.82 51.723 42.274 41.716 34.241 31.2c8.204-5.937 11.622-23.068 2.222-29.513-3.931-2.714-9.059-2.035-12.648 1.187-3.418 3.223-4.273 7.633-3.59 11.873C12.707 8.98.914 14.238.059 24.076c-.512 5.428 2.393 10.516 7.35 12.89 5.981 2.884 12.818 1.358 18.8-1.017 0 0 0 .17.17.17C41.762 50.366 52.017 69.193 67.91 82.762c.856.848 2.222-.509 1.368-1.357C54.92 66.479 44.154 48.16 27.746 35.27c0-.17-.171-.339-.342-.17-.171 0-.513 0-.684.17-8.204 1.527-21.022 2.375-23.073-8.141-2.051-10.346 9.742-15.265 17.091-8.99.171.17.342.17.513.34.342.848 1.538.508 1.538-.51-.684-4.41-.513-8.989 2.735-12.381C31.164-.35 38 4.57 38.854 11.185c1.026 6.784-1.367 13.908-6.665 18.318-.683.679-.342 1.527.342 2.036 7.178 11.533 15.895 22.558 25.808 31.717 0 0 .17 0 .17.17.172.509 1.026.848 1.71.34 1.88-1.527 3.59-3.223 5.469-4.92 1.538-1.356 3.59-2.713 4.615-4.579.683.679 1.196 1.357 1.709 2.374-1.197.849-2.222 1.866-3.248 2.884-1.196 1.187-2.564 2.035-3.077 3.731-.17.679.513 1.527 1.197 1.357 0 0 0 .17.17.17.684.848 1.539 1.865 1.88 2.883.343.848 1.197 1.018 1.88.509l3.077-2.545c.512-.508.342-.678 1.025-.169.343.34.684.848 1.026 1.187-.855 1.187-1.88 1.866-3.077 2.883-.513.51-.513 1.527 0 1.866.513.509.855 1.018 1.368 1.527.683.509 1.538.339 2.05-.34 1.026-.509 1.71-1.357 2.393-2.205.342-.34.683-.848 1.196-1.187.171-.34.513-.848.855-1.018.513.51 1.026 1.357 1.538 1.866-4.443 3.562-8.203 8.31-11.963 12.551-.684.848.341 1.866 1.196 1.187 4.614-4.07 9.912-8.141 13.502-13.23.002-.676-.34-1.355-.853-1.524z"/>
    </g>
</svg>
