<svg xmlns="http://www.w3.org/2000/svg" width="46" height="32" viewBox="0 0 46 32">
    <path fill="#FFF" fill-rule="evenodd" d="M45.79 1.063C45.438.322 43.966.676 43.262.28c-.725-.144-.701.444-1.33.392-.116-.323-.928.038-1.066-.26h-1.331c-.222-.22-.783-.105-1.197-.132-.362-.08-1.058.166-1.2-.13-4.99-.187-10.588-.213-15.574 0-3.136.064-6.394.765-9.85.783-3.401.018-6.897-.087-10.116.391C.992 1.775.807 2.64.267 3.152.075 4.182.206 5.53 0 6.546c.604 6.197.923 12.671 1.464 18.927.018.548.516.625.532 1.175.095.91.304 1.704.534 2.48.4.129.594.461 1.199.391-.015-.157.192-.08 0 0-.115.106-.08.358-.268.392-.046 1.22 1.044 1.327 1.997 1.567 1.084.067 2.11.192 3.328.13 1.017.177 2.139.251 3.195.392h11.98c2.822-.408 5.96-.509 8.785-.914 3.255.016 5.916-.551 8.919-.784.634-.143.183.779.665.784.1.337.425.453.932.392.58-.128.82-.59.931-1.176.148-.55.154-1.241.133-1.957v-4.178c.182-2.606.377-5.199.4-7.962.28-2.509.139-5.433.4-7.962.054-1.338.261-2.527.398-3.786-.099-.794.22-1.177.266-1.827.115-.581.409-1.158 0-1.567zM4.927 3.543h9.05c3.477-.376 6.964-.742 10.915-.652.23.027.347-.223.4 0 .14.136.662-.135.665-.13.005.006-.003.13 0 .13.406-.026.524-.068.8 0 .07.017.193.006.265 0 .345-.034.41-.002.93 0 0 0 .027-.153.136-.13.01 0 .038.118.133.13.27.035.756-.006 1.198 0-.036-.001.067-.212.133-.13.166.203.691.117 1.2.13.85-.058.968-.024 1.862 0 2.963.01 5.824.12 8.385.522.563-.022 0 .2 0 .392-.177.13-.4.215-.532.391-.306.265-.676.469-.93.783-.785.363-1.433.86-2.13 1.306-1.442.894-2.853 1.815-4.128 2.872-.354-.113-.237.246-.532.261-.223.012-.27.378-.532.392-.11.005-.503.279-.666.391-.129.088-.355.21-.4.392-.857.29-1.323.964-2.13 1.306-1.248 1.08-2.65 2.013-3.859 3.133-.86-.506-1.683-1.047-2.397-1.698-.923-.312-1.577-.888-2.396-1.305-.68-.508-1.504-.875-2.129-1.436-1.697-.685-3.135-1.624-4.791-2.349-3.32-1.444-6.348-3.174-9.584-4.7.21-.367.597.183 1.064 0zm-2.53.131c.02-.036.286-.241.4-.13.096.096-.54.386-.4.13zm4.526 25.977c.043-.306.16-.54.266-.784.189.249.31.567.398.914-.307.041-.51-.022-.664-.13zm5.19 0H10.65c.345-.75.854-1.34 1.198-2.089.542.252.146 1.423.266 2.089zM42.996 6.937c-.234 3.948-.456 7.908-.8 11.749v1.696c.11.37-.187.339-.133.652v1.959c-.331 1.327.107 3.412-.398 4.569-1.003-.07-1.629.23-2.664.13-3.259.676-7.25.635-10.515 1.305.105-.765.665-1.088.799-1.827-.074-.378-.208.2-.4.13-.134.174-.126.486-.399.523-.084.483-.374.763-.533 1.174-1.315.102-2.516.316-3.86.392.542-.992 1.437-1.638 1.73-2.872-.41-.338-.712.267-.932.522-.338.276-.588.641-.797 1.045-.377.196-.567.575-1.066.652.005.308-.228.385-.132.783h-5.192c.004-.535.678-.905.4-1.305-.712.085-.654.927-1.065 1.305-1.216-.06-2.245.063-3.328.131-.226-.866-.298-1.882-.665-2.61-.286-.572.204-.806 0-1.175-1.312.15-2.032.879-2.795 1.565-.209-.188-.263-.525-.8-.391-.86.07-1.013.834-1.73 1.044.112-.456.444-.695.4-1.305-.612.022-.898.559-1.198.914-.33.389-.478.93-.932 1.175.005.179-.062.286-.133.391-.053.224.196.335 0 .392-.693-.018-1.17-.244-1.864-.261.041-.308.463-.244.4-.653.376-.02.31.392.665.391.55-.2.949-.549 1.065-1.174.384-.406.632-.947.932-1.436.595-.94 1.268-1.803 1.596-3.002-1.583.32-2.135 1.649-3.06 2.61.014.159-.195.08 0 0 .446-1.084 1.1-1.967 1.597-3.002.433-.998 1.687-1.782 1.197-3.263-1.465-.044-1.723 1.094-2.528 1.697-.425 1.02-1.24 1.656-1.599 2.74-.312-.109.01-.672.135-.782-.037-.47.245-.63.265-1.044.375-.503.463-1.288.8-1.828.136-.692.499-1.165.665-1.828.222-.65.753-1.002.799-1.828-.077-.402-.481-.485-.8-.652-.762.034-.962.622-1.464.914-.294.974-.903 1.637-1.198 2.611-.301-.14-.05-.821-.133-1.175.182-.257.127-.745.266-1.044.021-.415.301-.574.267-1.044.312-.128.12-.753.398-.914.21-1.37 1.412-2.433.932-4.046-1.135-.113-1.484.545-1.863 1.174-.301-.097-.052-.732-.134-1.044-.302-.139-.05-.82-.132-1.174-.261-2.05-.45-4.171-.665-6.266.305.18.427.538.665.783.99.465 1.768 1.139 2.662 1.697.999.457 1.755 1.15 2.795 1.567 1.713 1.19 3.817 2 5.59 3.132 1.08.38 1.934.977 2.797 1.566.924.53 1.636 1.268 2.663 1.697.734.716 1.895 1.014 2.529 1.828.565.185.893.602 1.33.914.655.097.974.524 1.864.392.543-.164.898-.513 1.065-1.044.845-.303 1.36-.93 2.13-1.306.55-.635 1.446-.932 1.996-1.567.858-.29 1.324-.964 2.13-1.305.658-.53 1.428-.949 2.13-1.436 2.58-2.127 5.86-3.564 8.253-5.874.3.301.106 1.23 0 1.566zM4.793 27.17c.25.13-.066.795-.4.783-.136-.525.207-.58.4-.783zM43.794 2.76c.026-.148.133-.072.133 0-.025.148-.134.073-.133 0z"/>
</svg>
