<svg xmlns="http://www.w3.org/2000/svg" width="78" height="84" viewBox="0 0 78 84">
    <g fill="#FFF" fill-rule="evenodd">
        <path fill-rule="nonzero" d="M77.112 60.106c-.202-.619-.82-.963-1.408-.965-4.017-5.015-11.913-14.08-19.298-13.008-7.605 1.105-8.414 9.574-7.49 15.705.24 1.585.586 3.139.698 4.742.287 4.108-8.278 1.029-10.02.284-6.263-2.676-11.514-7.905-15.456-13.334-4-5.507-6.287-12.924-3.158-19.39 1.497-3.094 11.726-.671 14.466-.783 1.203-.048 2.264-1.205 1.862-2.445-3.57-11.027-13.746-16.665-19.206-26.317-.66-1.166-2.423-.462-2.266.772C.599 8.137-1.692 26.447.934 38.845c2.89 13.64 11.266 26.07 22.8 33.782C34.266 79.67 48.247 85.13 61.088 83.799c11.34-1.176 19.73-12.327 16.023-23.693zM13.834 8.868c.803-.678 1.62-1.357 2.445-2.053 3.119 8.705 12.329 14.107 16.314 22.638-1.411-.07-2.826-.192-4.203-.28-2.998-3.203-5.93-6.114-8.476-9.848-.64-.938-5.953-10.34-6.315-10.206a.407.407 0 0 0 .235-.251zm59.852 57.156c-.054-.043-.094-.094-.162-.13-6.654-3.428-12.77-6.08-17.414-12.293-.73-.977-2.372-.094-1.677.98 4.11 6.346 11.044 11.108 18.248 13.317.278.085.53.044.744-.066-.416 2.51-1.122 4.93-2.85 7.151-3.042 3.914-8.265 4.907-12.922 5.021-10.769.264-21.88-4.624-30.87-10.14-10.197-6.26-16.886-16.213-20.752-27.41-2.248-6.515-3.106-13.568-1.614-20.334 1.163-5.276 4.204-8.678 7.804-11.86.112 1.905 1.821 4.381 2.58 5.736 1.873 3.344 4.056 6.49 6.399 9.52.8 1.034 1.79 2.413 2.921 3.62-4.022.304-7.164 1.991-7.976 8.122-1.735 13.103 8.071 24.323 18.409 31.015 4.811 3.115 18.505 8.074 18.823-1.693.157-4.841-2.316-9.16-.012-13.925 4.236-8.763 16.364 5.707 19.703 9.132.338.347.701.521 1.056.572-.166 1.23-.29 2.455-.438 3.665z"/>
        <path d="M65.932 37.359C64.1 29.545 57.148 22.407 51.52 17.095c-2.589-2.442-5.727-5.214-9.104-6.49-2.624-.992-3.228-.71-5.275.454-.29.164-.087.58.218.517.931-.192 3.751 1.844 4.568 2.35 2.89 1.786 5.387 4.3 7.755 6.711 4.872 4.963 10.102 11.078 12.147 17.854.794 2.632 4.733 1.542 4.104-1.132z"/>
        <path d="M64.464 18.05C57.364 9.99 46.977 3.956 37.01.063c-.953-.372-1.362 1.008-.649 1.516 7.566 5.391 15.251 10.31 22.064 16.666 3.282 3.06 5.941 6.603 8.108 10.491 2.155 3.867 2.15 7.998 3.6 12.025.562 1.561 2.91 1.74 3.394 0 2.247-8.068-3.969-16.929-9.063-22.71zM55.364 1.061c-1.185-.416-1.913 1.402-.844 1.994 4.484 2.484 8.47 5.553 11.6 9.634 2.72 3.545 3.941 7.547 6.085 11.364.926 1.649 4.032 1.041 3.78-1.021-1.267-10.389-11.322-18.705-20.621-21.97z"/>
    </g>
</svg>
