<svg xmlns="http://www.w3.org/2000/svg" width="40" height="52" viewBox="0 0 40 52">
    <path fill="#FFF" fill-rule="evenodd" d="M39.884 40.368c-.428-.499-.898-.947-1.47-1.286a179.042 179.042 0 0 1-3.87-2.342c-.593-.371-1.219-.735-1.698-1.231a4.307 4.307 0 0 0-1.471-1.008c-1.48-.626-2.946-1.284-4.437-1.88-.49-.196-.89-.424-1.14-.906-.116-.222-.318-.4-.43-.622-.858-1.707-.951-3.421.198-5.015 1.633-2.264 2.965-4.698 4.187-7.2.27-1.234.996-1.799 2.26-1.58.047.009.099-.01.148-.012.49-.023.863-.266 1.134-.655.173-.247.34-.514.428-.8.323-1.062.668-2.123.896-3.208.155-.74.168-1.53-.383-2.171-.286-.332-.188-.626-.013-.968.786-1.539 1.303-3.177 1.736-4.847.182-.705.171-1.394.025-2.102-.195-.935-.742-1.543-1.617-1.832a33.336 33.336 0 0 0-2.31-.651 1.896 1.896 0 0 0-.746-.028c-.89.141-1.791.252-2.656.495-.557.156-.995.218-1.535-.102-.356-.212-.87-.191-1.314-.203-2.512-.066-5 .127-7.483.564-2.401.425-4.645 1.225-6.74 2.47-.254.15-.539.32-.696.556-.323.49-.734.47-1.189.324-1.282-.415-2.56-.298-3.853-.045-1.46.285-2.686 1.108-3.985 1.75-.624.308-1.103.899-1.346 1.589-.588 1.672-.773 3.394-.007 5.034.772 1.653 1.786 3.17 3.265 4.294.286.217.579.427.68.784.198.7.714 1.065 1.302 1.39.483.266.977.536 1.394.89.427.363.811.733 1.39.855.216.047.426.268.578.458.28.354.527.738.768 1.122.671 1.068 1.3 2.166 2.01 3.208a28.726 28.726 0 0 0 2.016 2.648c1.038 1.199 1.356 2.685 1.764 4.141.086.308-.01.593-.263.82-.75.676-1.513 1.335-2.41 1.81a13.381 13.381 0 0 0-2.492 1.69 7.632 7.632 0 0 1-1.903 1.193c-1.52.676-2.89 1.622-4.293 2.509-.527.332-.761.775-.72 1.391.025.354.013.71.048 1.064.058.565.27 1.079.616 1.528.224.292.508.504.903.42.412-.086.533-.414.583-.787.004-.033.01-.066.015-.098l-.03-.013-.32-.309.003-.073c-.064-.047-.136-.09-.164-.152-.028-.064.02-.16.034-.243.043.062.107.118.124.187.015.065.01.137.006.208.013.01.027.018.038.028l.317.315-.008.052c.524.201 1.055.636 1.535-.107.113-.177.262.022.396.044.146.024.295.058.44.05.324-.02.553-.388.406-.648-.275-.483-.57-.955-.842-1.44-.071-.127-.1-.28-.132-.426-.007-.032.044-.087.08-.116.027-.02.095-.033.109-.018.133.148.256.304.387.454.23.263.456.53.7.779.059.059.22.098.272.06.108-.079.24-.213.245-.329.009-.246-.047-.497-.097-.743-.04-.196-.114-.383-.161-.578-.01-.038.023-.095.051-.132.012-.015.079-.014.094.003.1.113.188.235.287.348.301.342.638.501 1.04.164.192-.16.276.022.341.122.22.338.403.7.62 1.042.347.547.498 1.223 1.047 1.64-.316.568-.637 1.132-.942 1.706-.297.555-.229.944.229 1.356 1.01.91 2.014 1.827 3.04 2.718.915.792 1.863 1.544 2.942 2.102.523.27 1.025.193 1.22-.145.155-.267.01-.658-.423-1.036-.799-.694-1.625-1.354-2.411-2.063-.786-.707-1.568-1.425-2.293-2.195-.735-.782-.727-.68-.215-1.532.337-.563.681-1.12 1.029-1.677.16-.257.349-.497.497-.76.326-.579-.014-1.14-.694-1.122-.345.01-.69.097-1.032.16-.231.042-.395-.054-.483-.252-.49-1.11-.967-2.226-1.452-3.338-.093-.214-.058-.413.108-.55.349-.286.703-.571 1.083-.81.98-.616 1.978-1.2 2.843-1.984.063-.057.198-.104.258-.073.07.036.13.162.133.251.01.304.011.609-.015.911-.084.958-.228 1.913-.265 2.872-.08 2.027-.098 4.052.357 6.051.169.743.314 1.474.737 2.134.27.42.418.92.64 1.373.2.408.414.811.645 1.202.272.46.71.7 1.205.847.396.116.854-.2.838-.626-.012-.347-.11-.692-.171-1.037-.041-.24.062-.378.304-.409.343-.043.7-.045 1.025-.151.138-.045.286-.31.284-.474-.003-.163-.152-.39-.3-.468-.211-.112-.489-.086-.72-.17-.275-.1-.54-.241-.793-.39-.062-.037-.107-.19-.08-.263.023-.067.167-.152.228-.134.485.15.973.234 1.481.172.364-.047.727-.395.613-.72-.166-.472-.237-.811.329-1.018.11-.04.228-.236.227-.36-.001-.18-.058-.417-.181-.52-.134-.113-.376-.083-.56-.146a14.687 14.687 0 0 1-1.105-.422c-.074-.032-.105-.164-.156-.25.091-.026.19-.089.273-.073.341.067.666.19 1.03.067.36-.122.504-.57.223-.838-.142-.137-.325-.228-.484-.348-.1-.076-.061-.127.081-.18.324-.122.68-.065.803.184.49.998.861 2.076 1.48 2.983.484.71.512 1.257.083 1.922-.08.124-.153.269-.175.413-.022.14-.001.304.052.437.101.255.32.42.585.378.174-.027.336-.18.485-.299a.581.581 0 0 0 .152-.259c.603-1.775 1.147-3.58 1.318-5.445.15-1.66.074-3.344.068-5.017-.002-.707-.03-1.418-.275-2.102-.061-.171-.06-.428.028-.575.147-.246.356-.009.507.058 1.102.486 2.195.993 3.291 1.493.23.104.46.202.685.315.2.1.3.29.242.496-.11.386-.198.8-.407 1.129a7.684 7.684 0 0 0-.98 2.212c-.149.571-.483.853-1.007.99-.386.1-.786.172-1.153.324-.815.336-.946 1.119-.286 1.666.583.484 1.215.892 1.957 1.1.239.066.473.154.704.248.192.079.266.325.162.506-.557.972-1.228 1.852-2.064 2.598-.527.47-1.09.902-1.585 1.404-.74.751-1.442 1.543-2.147 2.331-.194.217-.15.606.046.845.23.282.684.373.942.145.3-.265.602-.543.836-.867.657-.91 1.478-1.645 2.318-2.374.606-.525 1.188-1.099 1.68-1.73.62-.795 1.144-1.665 1.693-2.513.286-.442.145-.884-.357-1.121-.677-.32-1.368-.61-2.05-.92-.085-.039-.15-.125-.225-.19.06-.056.11-.146.18-.165.89-.248 1.328-.859 1.382-1.768.02-.317.14-.576.309-.838.197-.307.177-.32.425.01.452.601.888.61 1.285.008.222-.337.403-.701.61-1.048.139-.231.36-.303.475-.143.073.1.12.28.082.39-.112.333-.295.643-.402.979-.058.182-.025.398-.012.598.01.167.35.31.484.204.152-.121.315-.245.43-.4.211-.283.37-.606.59-.879.14-.171.345-.143.537-.02.237.152.308.363.327.633.016.238.185.371.408.251.516-.279.854.04 1.203.328.221.182.268.397.098.658-.135.206-.301.469-.003.645.139.082.403.066.553-.015.327-.178.643-.25 1.008-.177.141.029.3.002.446-.027.404-.078.626-.653.36-.964zm-6.798-25.432a1.402 1.402 0 0 1-1.025 1.016c-.635.171-.806.048-.85-.667-.073-1.173.185-2.303.497-3.416.134-.481.743-.662 1.251-.465.254.1.434.255.458.537.026.303.03.607.055 1.185-.09.432-.194 1.134-.386 1.81zm-1.51-5.99c.016-.305.063-.373.55-.514a12.19 12.19 0 0 1 1.015-.25c.05-.01.188.145.176.166-.253.49-.508.979-.798 1.445-.063.101-.262.124-.403.165-.273.081-.522-.076-.538-.334-.01-.152-.002-.304-.002-.677zm2.561-2.437c-.104.443-.293.672-.822.671-.48 0-.959.225-1.44.35-.04-.024-.108-.043-.116-.078-.019-.081-.043-.218-.005-.247.772-.554 1.552-1.097 2.333-1.639.036-.026.122-.052.127-.043.048.083.13.182.115.26-.045.246-.135.482-.192.726zm-3.651-2.997c.073-.18.17-.36.3-.504.401-.454.786-.906.913-1.535.047-.23.254-.244.478-.167.47.162.947.308 1.427.438.98.265 1.25.579 1.297 1.562.005.102 0 .203 0 .403-.002.052-.008.203-.02.354-.022.296-.2.464-.486.325-.388-.188-.699-.058-.985.124-.548.346-1.06.752-1.598 1.118-.118.081-.305.124-.374-.069-.046-.124-.075-.33-.008-.407.427-.49.905-.938 1.322-1.438.182-.218.289-.516.375-.795.034-.111-.048-.311-.142-.393-.089-.078-.308-.117-.393-.058-.369.252-.711.542-1.057.825-.231.19-.444.402-.683.58-.039.028-.186-.047-.25-.108-.064-.065-.14-.194-.116-.255zm-.845-2.086c.092-.025.195-.017.293-.024.092.024.185.043.276.073.135.043.16.13.057.228-.138.131-.27.288-.434.365-.218.103-.512-.067-.564-.318-.06-.291.2-.277.372-.324zM9.784 7.164c1.538-1.493 3.341-2.56 5.314-3.343a18.174 18.174 0 0 1 4.937-1.196c1.241-.123 2.482-.255 3.722-.384l.01.081c.55 0 1.103.03 1.65-.007.912-.062 1.654.3 2.331.863 1.714 1.427 2.398 3.3 2.333 5.5-.011.353-.168.544-.519.645-.384.11-.79.164-1.155.315-.713.297-1.282.302-1.825-.394-.406-.521-1.064-.728-1.732-.813-.396-.05-.785-.149-1.18-.199-1.113-.139-2.099.068-2.737 1.116-.245.405-.53.474-1 .358-.975-.239-1.882.05-2.689.623-.298.212-.527.201-.8-.018-.87-.702-1.94-.754-2.975-.892-.683-.092-1.279.155-1.76.66-.175.183-.349.364-.527.542-.296.296-.648.478-1.068.488-.65.016-1.3.019-1.95.021-.184.001-.366-.249-.314-.427.382-1.326.927-2.562 1.934-3.539zm16.567 4.691c-.129.64-.221 1.289-.397 1.915-.154.542-.582.823-1.138.823-.5 0-1.01 0-1.495-.099-.953-.194-1.564-.927-1.677-1.902-.176-1.5.365-2.293 1.81-2.663.492-.126.988-.131 1.488-.063.86.116 1.324.641 1.337 1.517.003.152.001.304.001.456l.071.016zm-8.91 2.524c0-.708-.008-1.418.002-2.127.008-.597.441-1.177 1.015-1.345.238-.07.492-.1.74-.11.51-.018.892.24 1.007.732.458 1.967.956 3.93.903 5.977-.02.808-.092.959-.918 1.111-2.286.423-2.417.214-2.661-1.958-.085-.75-.013-1.52-.013-2.28h-.076zm-2.838-3.487c1.154.161 1.758.925 1.614 2.1-.099.803-.33 1.578-.828 2.237-.369.488-.88.653-1.46.497-1.043-.28-1.739-.972-2.133-1.951-.534-1.33.48-2.84 1.91-2.907.1-.005.2 0 .3 0v.02c.198 0 .401-.025.597.004zM6.195 6.006c.377-.218.765-.417 1.173-.634.24.163.462.269.624.435.184.187.233.48.083.684-.198.267-.463.493-.732.691-.08.059-.312.019-.396-.06a9.573 9.573 0 0 1-.79-.872c-.036-.044-.009-.217.038-.244zM3.677 7.084c.028-.033.194-.022.216.017.501.877 1.01 1.746 1.793 2.41.058.05.046.183.067.277-.078.054-.152.145-.234.153a.393.393 0 0 1-.272-.1c-.743-.697-1.316-1.513-1.65-2.488-.025-.075.025-.2.08-.269zm1.685 6.637c-.086.105-.195.269-.334.4-.057.053-.213.082-.265.043-.605-.454-1.028-1.06-1.349-1.74-.014-.03.018-.093.046-.125.017-.02.082-.028.099-.013.499.48.969 1.004 1.701 1.125a.177.177 0 0 1 .112.092c.017.039-.003.097-.01.218zm-.214-1.744c-.38-.275-.706-.6-.864-1.058l-.065-.018c-.013-.039-.021-.08-.04-.116-.012-.023-.039-.039-.06-.057l.14.133c.006.02.017.037.024.058.393.107.791.203 1.174.341.083.03.15.243.14.364-.01.127-.108.261-.2.36-.04.042-.19.036-.25-.007zm2.995 7.073c-.037.045-.212.035-.278-.013-.64-.471-1.294-.93-1.899-1.446-.357-.305-.451-.77-.437-1.307.075-.28.152-.625.263-.958.086-.262.464-.53.693-.5.273.035.435.225.527.475.42 1.132.84 2.263 1.243 3.4.034.095-.04.258-.112.35zm6.296 6.632c-.452-.722-1.08-1.328-1.607-2.004-.309-.396-.633-.799-.844-1.25a14.838 14.838 0 0 0-1.387-2.337c-.948-1.33-1.598-2.798-2.022-4.375-.105-.39-.243-.771-.353-1.16-.114-.398.003-.57.403-.611.15-.017.3-.02.429-.03.302-.04.506.06.607.339.017.047.045.09.064.138.884 2.08 2.904 2.813 5.12 2.572.525-.058.916-.379 1.319-.68.07-.053.167-.069.252-.102.014.095.053.193.04.285-.082.599-.188 1.196-.26 1.796a1.57 1.57 0 0 0 .22 1.018c.12.204.284.46.247.66-.04.216-.278.403-.45.584-.385.4-.782.785-1.172 1.179-.14.143-.287.284-.406.444-.274.366-.077.978.359 1.134.45.162.879.1 1.31-.095 1.005-.453 2.03-.865 3.02-1.346.434-.21.815-.198 1.282-.16 1.351.113 2.676.312 3.981.678.398.111.754-.047.921-.332.22-.375.125-.976-.24-1.235a4.73 4.73 0 0 0-.925-.493c-.742-.303-1.496-.574-2.24-.869-.12-.047-.326-.121-.18-.307.826-1.047.691-2.16.253-3.301-.036-.093-.078-.185-.104-.281-.01-.042 0-.127.021-.134a.737.737 0 0 1 .243-.037c.047 0 .097.028.14.05.842.433 1.748.382 2.65.358.48-.012.85-.249 1.19-.573.533-.513.777-1.168.931-1.868.065-.295.13-.595.143-.896.07-1.458-.021-1.053 1.362-1.516.279-.092.593-.083.891-.106.193-.016.402.201.37.382-.284 1.539-.57 3.077-.86 4.615-.018.098-.061.193-.101.285-.947 2.176-1.83 4.381-3.144 6.375a71.502 71.502 0 0 0-1.743 2.836 11.873 11.873 0 0 1-1.854 2.377c-.093.091-.292.172-.389.13-.095-.04-.14-.238-.176-.376-.05-.194-.048-.404-.114-.591-.047-.133-.17-.34-.257-.34-.496.003-.907-.48-1.413-.277-.37.147-.558.03-.708-.3-.089-.193-.264-.326-.474-.246a.528.528 0 0 0-.286.32c-.111.49-.196.963-.557 1.37-.174.198-.129.58-.235.86-.036.092-.243.186-.353.167-.191-.03-.426-.101-.541-.24-.734-.884-1.745-1.48-2.373-2.484zm4.944 14.591a464.898 464.898 0 0 1-1.32 3.861c-.02.062-.149.14-.204.124-.083-.023-.197-.112-.211-.19-.186-.986-.357-1.977-.49-2.734 0-.447.003-.649 0-.85-.008-.33.112-.582.393-.76.17-.108.322-.24.482-.362.48-.363.48-.364.982-.007.542.386.547.387.368.918zm-1.602-5.876c.27-.08.909.393.937.635.04.348.038.701.054 1.053l-.046.001c0 .252-.01.505 0 .758.031.756-.544 1.012-1.06 1.311-.03.019-.197-.094-.196-.143.015-.755.037-1.51.083-2.262.015-.248.092-.495.16-.736.06-.21-.3-.508.068-.617zm2.874 10.054c.02.015.033.08.019.097-.027.036-.073.076-.114.078-.265.015-.509-.143-.546-.345.06-.046.147-.144.177-.128.163.083.314.192.464.298zm-.346-9.394l.08.01-.048.078-.032-.088zm1.218 2.486c-.124.062-.27.077-.356.099-.153-.016-.25-.02-.344-.038a.239.239 0 0 1-.125-.069c-.01-.013.018-.095.04-.102.268-.076.536-.148.807-.21.026-.006.103.073.097.094-.026.082-.057.195-.119.226zm.227-4.504c-.466.294-.956.55-1.436.82-.504-.221-1.006-.445-1.51-.666-.366-.16-.722-.387-1.104-.455-.495-.087-.664-.392-.762-.808-.047-.196-.079-.397-.118-.596-.06-.192-.141-.38-.174-.578-.028-.161.038-.278.248-.235 1.289.26 2.595.118 3.893.163.41.015.791-.117 1.127-.364.323-.238.642-.483.967-.72.151-.11.287-.047.334.108.087.289.182.588.197.886.035.674-.076 1.304-.692 1.727-.331.227-.63.505-.97.718zm.677 2.425c-.12-.042-.197-.215-.286-.335-.135-.183-.147-.402.016-.544.301-.262.63-.492.962-.713.196-.13.466-.347.623-.292.255.088.508.332.643.578.164.299.213.664.295 1.005.035.145.037.3.04.452.005.302 0 .605 0 .907l.05.001c-.024.3-.045.6-.074.899-.005.045-.05.125-.072.124-.085-.004-.202-.007-.25-.06a9.076 9.076 0 0 1-.556-.71c-.38-.528-.73-1.079-1.39-1.312zm2.707 7.377c-.012.082-.13.216-.181.208-.117-.018-.273-.083-.323-.178-.533-1.02-1.032-2.058-1.574-3.072-.314-.589-.1-1.18-.09-1.77.001-.05.1-.1.153-.147.087.073.178.125.235.201.243.318.462.653.713.963.316.39.652.756 1.2.821.098.012.26.212.248.308-.107.89-.24 1.78-.38 2.666z"/>
</svg>
