<svg xmlns="http://www.w3.org/2000/svg" width="44" height="45" viewBox="0 0 44 45">
    <path fill="#FFF" fill-rule="evenodd" d="M20.056 16.05c1.033.294 2.104.365 3.171.417.664.032 1.078-.335 1.316-.93.213-.533-.032-.945-.357-1.328-.21-.247-.498-.351-.824-.387a67.133 67.133 0 0 1-2.12-.267c-.97-.137-1.94-.283-2.88-.555-1.891-.547-3.874-.575-5.781-1.023-.398-.094-.69.1-.9.425-.508.78-1.007 1.568-1.525 2.341-.082.121-.246.189-.372.28-.07-.111-.152-.217-.206-.336-.153-.332-.217-.662-.04-1.019.096-.191.143-.417.164-.631a.737.737 0 0 0-.582-.784c-.256-.048-.54-.065-.787-.003-.557.138-.88.806-.545 1.239.373.48.372.97.306 1.5-.012.105-.102.2-.156.301-.096-.088-.228-.16-.28-.268-.558-1.152-1.28-2.222-1.753-3.417-.086-.217-.34-.389-.52-.325-.544.19-1.078.403-1.616.607-1.06 1.014-2.185 1.968-2.813 3.34C.376 16.491.02 17.8.022 19.2.027 21.635.004 24.071 0 26.508c0 .62.028 1.24.048 1.86.015.472.237.843.597 1.14.593.49 1.517.285 1.787-.428.155-.41.234-.842.192-1.3a35.862 35.862 0 0 1-.133-2.382c-.021-.797 0-1.595-.006-2.392-.011-1.468.232-2.907.546-4.332.112-.513.345-1.001.546-1.492a.463.463 0 0 1 .278-.248c.184-.044.166.143.183.254.168 1.092.378 2.18.484 3.279.145 1.496.431 2.98.393 4.493-.017.664.016 1.33.007 1.993-.04 3.012.107 6.019.246 9.026.008.177.005.356.031.53.34 2.235.474 4.486.49 6.744 0 .177-.017.36.02.53.048.21.12.426.225.615.27.488.739.673 1.377.578.546-.082.988-.506 1.04-1.058.039-.395.023-.797.021-1.195-.01-2.88-.026-5.758-.037-8.636-.002-.354 0-.71.035-1.06a.422.422 0 0 1 .221-.297c.287-.11.588-.194.891-.247.303-.054.506.132.509.451.008 1.24 0 2.481.006 3.72.003.488-.065.996.05 1.458.249 1.006.17 2.022.23 3.035.044.747.159 1.494.295 2.232.054.293.214.583.386.835.294.43.922.592 1.444.421.449-.148.801-.61.813-1.112.007-.263.012-.543-.066-.789-.233-.735-.195-1.487-.216-2.238a46.893 46.893 0 0 0-.118-2.118c-.036-.483-.145-.963-.147-1.444-.015-2.878-.008-5.755-.008-8.634h-.006c0-2.967.007-5.934-.005-8.901-.003-.63.034-1.258.323-1.812.27-.52.445-1.057.589-1.614.054-.213.131-.422.217-.626.099-.23.4-.415.656-.367.48.09.954.218 1.433.317.651.136 1.302.334 1.96.372a10.15 10.15 0 0 1 2.229.38zm23.732-8.07c-.122-1.184-.039-2.388-.068-3.583-.018-.754-.382-1.197-1.13-1.197-.538 0-.918-.288-1.372-.44-.518-.173-1.042.322-1.57.016-1.634-.23-3.265-.456-4.925-.386-.892.038-1.785.007-2.679.007l-.002-.041-4.545.216c-.193.01-.351-.119-.353-.304-.004-.398.022-.798-.004-1.193-.038-.569-.52-1.063-1.07-.937-.61.14-1.142-.022-1.706-.12a1.83 1.83 0 0 0-.532.003c-.335.042-.623.205-.675.548-.097.65-.449 1.252-.342 1.945.04.255-.136.391-.418.398-.759.019-1.519.04-2.277.033-1.432-.016-2.852.112-4.265.315a1.792 1.792 0 0 0-.727.291c-.454.313-.411.97.079 1.205.274.132.584.233.886.259.577.05 1.16.046 1.74.046 2.41.002 4.822.016 7.233-.01 1.74-.02 3.477-.05 5.217-.149 2.181-.123 4.374-.052 6.562-.058.221 0 .444.04.663.076.755.125 1.497.168 2.248-.071.33-.105.704-.09 1.059-.104.259-.01.405.157.406.416.003.262-.039.53.008.785.14.75.134 1.507.026 2.25-.2 1.367-.15 2.74-.186 4.111a6.735 6.735 0 0 0 .341 2.354c.146.431.229.847.211 1.295l-.325 8.627a.776.776 0 0 1-.017.132c-.043.193-.161.315-.363.309-1.205-.035-2.403-.026-3.596.23-.471.1-.979.049-1.47.05-.804.005-1.607-.013-2.411-.005-.983.009-1.974-.044-2.945.072-1.69.203-3.383.195-5.078.243-2.23.065-4.459.163-6.687.239-.414.014-.809.098-1.135.339a.962.962 0 0 0-.332.536c-.061.283.111.512.362.652.358.2.75.258 1.16.266.892.017 1.784.07 2.677.088.4.009.689.129.805.541.158.562.519.894 1.108 1.024.33.073.439.291.427.578-.049 1.15-.12 2.3-.134 3.45-.007.493-.188.824-.571 1.12-1.092.842-2.17 1.703-3.241 2.572a42.266 42.266 0 0 0-1.93 1.644c-.597.547-.638 1.248-.382 1.962a1.262 1.262 0 0 0 1.87.646c.413-.255.776-.594 1.14-.918 1.262-1.123 2.512-2.26 3.774-3.385.382-.341.624-.335 1.067-.03 1.1.757 2.208 1.5 3.298 2.272.834.591 1.644 1.214 2.464 1.826.25.186.48.4.741.568.49.318 1.027.311 1.53.063.536-.266.725-.75.69-1.333-.02-.32-.104-.616-.342-.841-.323-.305-.637-.628-.995-.887-1.046-.754-2.114-1.477-3.167-2.22-.1-.073-.157-.206-.234-.312.112-.035.228-.109.338-.1.754.062 1.507.156 2.262.21.445.033.888.038 1.311.217.16.068.346.087.522.106.6.061 1.11-.223 1.306-.714.224-.565.06-1.193-.452-1.53-.293-.193-.62-.37-.955-.456a7.41 7.41 0 0 0-1.581-.248c-1.605-.052-3.197-.327-4.81-.258-.403.017-.584-.144-.637-.522a85.795 85.795 0 0 1-.319-2.5c-.07-.631.232-1.072.918-1.219.547-.117.884-.364.996-.917.06-.29.264-.441.573-.458 1.246-.069 2.492-.176 3.739-.21 2.361-.063 4.733.102 7.075-.342.39-.074.79-.123 1.172-.23.683-.193 1.359-.41 2.031-.636.36-.121.592-.347.593-.779.002-.752.008-1.509.083-2.257.205-2.07.404-4.144.418-6.221.02-3.009.136-6.02-.174-9.03zM25.012 2.58c-.032.065-.25.094-.353.056-.23-.085-.312-.425-.208-.798.018-.067.12-.11.182-.165.08.03.186.035.232.09.204.24.29.526.147.817zm-3.76 16.584c-.229.123-.449.287-.627.475-.315.334-.123.974.331 1.07.297.061.627.072.923.01.432-.09.85-.259 1.27-.406 1.31-.46 2.511-1.142 3.677-1.88.384-.243.66-.34 1.054-.008.438.369.936.665 1.515.817.925.244 1.376.057 1.866-.786.424-.727.874-1.439 1.33-2.146.23-.358.546-.46.923-.304.328.136.63.33.953.476.363.163.728.348 1.112.437.827.19 1.507-.233 1.743-1.03.038-.127.063-.258.092-.388.301-1.382.638-2.755 1.139-4.083.077-.204.097-.429.12-.537.006-.782-.485-1.28-1.17-1.305-.616-.023-1.042.277-1.243.82-.306.828-.554 1.678-.823 2.52-.093.294-.162.596-.266.887-.04.115-.118.235-.298.17-.25-.093-.509-.167-.763-.25-.719-.233-1.405-.148-2.069.199-.645.336-1.188.77-1.559 1.41-.243.421-.524.825-.825 1.207a.554.554 0 0 1-.453.169c-.209-.041-.397-.19-.59-.298-.194-.109-.373-.25-.577-.332-.592-.234-1.14-.092-1.643.257-1.136.787-2.343 1.454-3.584 2.062-.519.255-1.047.495-1.557.767zM4.864 6.988c.527.189.682.64.836 1.112.263.809.681 1.526 1.274 2.151.49.518 1.101.72 1.856.83.509-.034 1.097-.128 1.444-.657.287-.439.509-.927.708-1.414.132-.323.214-.68.243-1.028.042-.522.195-.946.701-1.185a.914.914 0 0 0 .217-.153c.491-.446.594-1.094.3-1.691-.15-.307-.422-.442-.698-.582a.653.653 0 0 1-.388-.638c.008-.625-.083-1.232-.332-1.811-.257-.6-.676-1.125-1.284-1.272C8.453.34 7.267.382 6.383 1.821c-.347.567-.67 1.152-.805 1.81-.1.496-.34.826-.763 1.15-.946.726-.736 1.392-.057 2.127.03.032.065.066.105.08zM8.77 3.401c.16-.31.298-.634.441-.953.101-.226.179-.06.247.016.363.415.547.895.533 1.45-.011.44-.002.88-.002 1.018.062 1.363.02 2.416-.43 3.404-.083.184-.26.333-.414.474-.044.04-.18.022-.247-.015-.057-.032-.124-.15-.104-.197.152-.365.317-.725.492-1.08.137-.278.095-.522-.143-.704-.25-.19-.327-.42-.198-.687.198-.41.075-.727-.152-1.098-.31-.51-.308-1.076-.023-1.628z"/>
</svg>
