<svg xmlns="http://www.w3.org/2000/svg" width="46" height="26" viewBox="0 0 46 26">
    <path fill="#FFF" fill-rule="evenodd" d="M39.59 16.532c1.525 1.488 3.136 2.888 4.504 4.526.605.728 1.177 1.479 1.615 2.324.62 1.2.059 2.522-1.02 2.594l-6.7-.003c-1.73.143-3.108-.552-4.267-1.732-.928-.944-1.787-1.949-2.68-2.925-.365-.399-.748-.774-1.205-1.07-.915-.594-1.71-.412-2.232.541-.533.97-.653 2.043-.706 3.123-.071 1.576-.548 1.99-2.134 2.062-3.387.16-6.602-.352-9.589-2.059-2.633-1.504-4.675-3.629-6.452-6.033C5.264 13.197 2.614 8.05.232 2.762-.304 1.57.088.93 1.405.908 3.59.865 5.777.868 7.965.905c.89.012 1.477.521 1.82 1.36 1.183 2.905 2.63 5.668 4.447 8.23.484.682.977 1.364 1.68 1.844.777.531 1.369.355 1.734-.51.232-.548.334-1.138.386-1.725.173-2.02.196-4.037-.108-6.05-.186-1.257-.895-2.07-2.15-2.308-.64-.121-.545-.36-.235-.724C16.078.392 16.584 0 17.594 0h7.574c1.192.235 1.457.77 1.62 1.968l.007 8.403c-.013.464.232 1.84 1.068 2.147.67.219 1.111-.316 1.513-.74 1.813-1.922 3.107-4.194 4.264-6.546.513-1.035.954-2.109 1.381-3.182.317-.797.814-1.189 1.713-1.171l7.289.006c.216 0 .435.004.644.04 1.228.208 1.565.736 1.185 1.934-.597 1.88-1.76 3.446-2.898 5.02-1.215 1.68-2.515 3.302-3.72 4.992-1.108 1.543-1.02 2.32.356 3.661z"/>
</svg>
