<svg xmlns="http://www.w3.org/2000/svg" width="41" height="40" viewBox="0 0 41 40">
    <path fill="#FFF" fill-rule="evenodd" d="M39.211 9.543c-.157-.076-.217-.248-.233-.463a6.303 6.303 0 0 1-.697-.927c-.203-.377-.583-.578-.7-1.041a12.806 12.806 0 0 1-1.628-1.621c-.596-.526-1.285-.96-1.861-1.506-.55-.532-1.175-.993-1.745-1.504-.609-.513-1.13-1.115-1.863-1.505-.833-.135-1.428-.509-2.326-.579-.931-.039-1.623-.315-2.676-.232-1.694-.103-4.103-.24-5.819-.115-.07.005-.136.018-.115.115h-.233C17.81.058 16.807.45 15.592.628c-.075.235-.544.077-.582.348-.37-.02-.39.308-.815.232-1.485.838-2.893 1.75-4.304 2.662-1.525.8-2.625 2.02-3.84 3.126-.48.797-1.116 1.437-1.514 2.316-.105.55-.694.62-.813 1.157-.404.254-.499.816-.931 1.042-.154.465-.457.78-.7 1.158-.2.455-.414.897-.696 1.274-.119.538-.348.966-.582 1.389.057.365-.21.408-.117.81-.308.041-.104.59-.348.694-.076 1.045-.22 2.02-.35 3.011.191 1.276.044 2.888.35 4.052.071 1.395.502 2.432.697 3.705.535.78.855 1.773 1.397 2.547.12.536.411.902.698 1.274.136.173.145.473.35.578.2.149.315.38.348.695 3.128 3.254 6.943 5.826 12.334 6.83 5.747 1.163 12.294.05 16.29-1.968.558-.485 1.215-.873 1.86-1.273.634-.643 1.136-1.417 1.861-1.968.219-.596.664-.962.932-1.505.364-.487.582-1.12 1.048-1.506-.018-.287.06-.48.232-.578.064-.206.059-.48.232-.58.146-.394.25-.83.467-1.156.245-.835.517-1.646.814-2.432.455-1.747.837-3.566 1.047-5.557.216-4.616-.394-8.408-1.746-11.462zm-18.383 11.23c-2.631-.046-5.464.11-7.913-.116-.273-2.568.088-5.456.35-7.872 2.252.304 4.691.426 7.097.578.07 2.555.255 4.993.466 7.41zM15.824 3.175c.714-.292 1.685-.33 2.327-.694.43-.074 1.16.15 1.397-.117h.349c-.318 2.895.14 5.727.233 8.568-2.082-.206-4.416-.16-6.4-.464.455-2.671 1.23-5.026 2.094-7.293zM9.425 7.69c.237-.202.228.087.466-.115.147-.394.413-.67.58-1.042.424-.35.92-.63 1.165-1.158.86-.417 1.37-1.183 2.326-1.505-.772 1.97-1.557 3.931-1.977 6.252-1.422-.089-2.258-.764-3.607-.926.214-.636.846-.857 1.047-1.506zm-5.47 7.757c.321-.454.614-.933.7-1.62.532-.32.66-1.04 1.046-1.506.396-.456.725-.977 1.163-1.39.04-.151.206-.181.233-.346a23.237 23.237 0 0 0 4.306 1.851c-.43 2.506-.648 5.222-.698 8.105-2.713-.08-5.302-.284-7.446-.927-.102-1.721.488-2.755.697-4.167zm3.259 15.514c-.242-.222-.485-.445-.581-.811-.56-.37-.718-1.138-1.165-1.62-.574-1.281-1.16-2.551-1.628-3.937-.07-.3.046-.416.35-.347-.34-.782-.909-1.335-.932-2.431 2.276.59 5.06.676 7.563 1.042.043 2.734.64 4.92 1.047 7.293-1.265.516-2.642.92-3.839 1.505-.428-.076-.58-.427-.815-.694zm4.77 4.051a4.108 4.108 0 0 0-1.046-.578c-.212-.33-.64-.445-.931-.695-.242-.3-.681-.404-.815-.811.529-.092 1.076-.163 1.513-.347.444-.175 1.04-.199 1.395-.463.136-.018.207.025.234.116.23 1.123.658 2.047.815 3.241-.367-.176-.7-.385-1.164-.463zm.93-12.155c2.59.125 5.295.135 8.03.115.077 1.736.278 3.35.35 5.094-1.23.245-2.607.341-3.84.579-.456.28-1.29.184-1.746.463-.762-.025-1.075.397-1.862.348-.269-2.24-.825-4.196-.931-6.6zm6.4 13.545c-.434.124-.331-.288-.698-.232h-1.162c-.658-.191-1.191-.17-1.747-.232-.182-.319-.324-.68-.465-1.041-.123-.34-.16-.767-.35-1.042 0-.463-.23-.695-.23-1.158-.202-.264-.111-.816-.35-1.042.325-.447 1.086-.464 1.746-.579.535-.238 1.386-.162 1.977-.347 1.017.085 1.672-.188 2.677-.116.187.033.2-.11.348-.116h.233c.47-.005.098.829.35 1.043-.06.52.058.867.116 1.273v1.505c.088.683.217 1.328.35 1.969-.77.2-1.854.086-2.794.115zm2.328-33.458c1.016.068 2.315-.142 3.141.116.737.192.81 1.046 1.397 1.388.279.65.794 1.064 1.047 1.737.585 1.27 1.237 2.474 1.513 4.053a20.45 20.45 0 0 1-6.516.694c-.24-2.617-.517-5.196-.582-7.988zm7.098 28.71c-.067.552-.351.888-.35 1.506-.448.75-.51 1.883-1.047 2.547-.99.326-2.407.23-3.373.579-.207-1.449-.404-3.822-.35-5.905 1.866.044 3.612-.034 5.352-.116.178.32-.185.926-.232 1.39zm.813-3.935a79.8 79.8 0 0 0-6.05.23c-.318-1.535-.375-3.33-.464-5.092 2.266-.216 4.455-.507 6.514-.927h.233c-.006 2.001.08 4.093-.233 5.789zm.234-7.641c-2.326.194-4.562.477-6.982.579-.051-2.535-.304-4.868-.466-7.293 2.543.098 4.765-.122 6.633-.695.136.019.207-.025.234-.116.099-.021.108.046.115.116.4 2.225.498 4.752.466 7.409zm-.35-13.893c-.082-.179-.215-.364-.349-.579a17.563 17.563 0 0 1-.348-.578c-.05-.086-.05-.25-.117-.348.026.038-.768-.627-.35-.579 1.216.567 2.194 1.369 3.491 1.853.558.796 1.567 1.142 2.094 1.968-.337.436-.99.558-1.394.926-.684.093-1.01.541-1.747.579-.276-1.186-.81-2.23-1.28-3.242zm2.56 26.975c-.29-.018-.36.182-.582.231a1.638 1.638 0 0 0-.582.58c-.27-.354.208-.947.232-1.39.122-.497.213-1.025.35-1.505-.032-.187.11-.199.118-.347.772.119 1.216.564 1.861.81-.284.721-.953 1.06-1.398 1.62zm5.352-11.114c-.041.345-.185.587-.348.81-.209 2.61-1.055 4.587-1.978 6.484-1.105-.328-1.995-.871-3.027-1.274.277-2.38-.053-4.576.118-6.136 1.99-.027 3.403-.627 4.77-1.273.209.015.244-.142.465-.116v1.505zm-3.025-2.2h-2.328c.089-2.942-.252-5.459-.58-7.988 1.36-.575 2.724-1.147 3.838-1.968.095.022.117.116.233.115.354 1.384.976 2.503 1.28 3.937.288 1.412.563 2.836.582 4.515-.953.518-2.045.897-3.025 1.39z"/>
</svg>
