<svg xmlns="http://www.w3.org/2000/svg" width="46" height="41" viewBox="0 0 46 41">
    <path fill="#FFF" fill-rule="evenodd" d="M45.588 21.217a105.16 105.16 0 0 1-.63-8.679c-.232-1.169-.6-2.2-.754-3.446-.267-.41-.24-1.117-.63-1.404-.141-.58-.663-.773-1.005-1.149-.945-.342-2.545-.327-3.65-.127h-4.907c-.717.04-1.587.305-2.138.127-.37-.9-.227-2.321-.252-3.574-.267-.877-.503-1.786-1.007-2.425-1.3-.654-3.892-.622-5.66-.383-1.764.041-3.41.2-5.285.129-.585.214-1.571.021-2.138.255-.134.29-.792.048-1.132.127-.337.084-.786.054-1.007.256-1.473.208-2.545.82-3.146 1.914-.185.663-.117 1.584-.127 2.426-.812-.48-2.083-.244-2.138.766.072.311.109.656.503.637.031.396 1.036-.2.882.384-1.964.311-4.176-.174-6.418 0-.89.246-1.945.324-2.766.638-.83.52-1.486 1.215-2.014 2.042-.13 2.606-.358 5.396.125 7.658v2.936c.49 1.774.16 3.592.379 5.615.213.251.386.545.753.638.325.182.713.3.756.766-.583 3.222.01 6.91-.126 10.467-.14.973-.444 2.12.126 2.807 1.26.55 3.554.052 5.032.382.599-.074 1.16-.184 1.886-.127a36.258 36.258 0 0 1 4.782-.893c8.931.128 17.638.485 26.797.383 1.084-.22 2.319-.286 3.02-.895.174-1.184.383-2.335.503-3.573-.24-1.757-.081-3.917-.126-5.871.085-1.975-.451-3.944-.127-5.743.13-.124.255-.253.378-.383.312.018.612.023.629-.255.42-.17.784-.397 1.007-.767.195-.875-.44-.914-.375-1.659zM14.512 3.732c.917-.56 2.707-.232 3.65-.767 3.866.303 6.946-.857 10.567-.383.298.574.548 1.792.252 2.554-.698-.046-1.264-.245-1.762.127-.55.123-.419.936-.63 1.403-2.646-.047-5.163.039-7.673.129-.414.006-.627.216-1.133.128-.3-.079-.911.16-1.006-.128-.485.025-.134-.8-.377-1.02-.5-.217-1.328-.1-2.013-.13.058-.62-.132-1.495.125-1.913zm-11.7 20.166c.055-.186.11.012.252 0-.031.16-.25.128-.252 0zm4.53 14.805c-.639-.008-1.043.22-1.761.128-.535-.098-1.49.236-1.637-.256-.163-.55.26-.502.504-.638.146-.233.329-.432.502-.638V35.64c1.167.093 1.856.67 2.391 1.404v1.66zm27.803-3.446a6.717 6.717 0 0 1-.25 1.915c-.688.266-1.21-.043-2.014 0-.847.118-1.723.207-2.516.381h-2.642c-.436-.1-.484.192-.88.13H16.146c-.767.155-1.71.137-2.641.128-.647.193-1.631.047-2.138.382-.76-.094-1.564.318-2.014.127.063-.837.137-1.235-.125-1.915-.491-1.33-1.64-1.995-2.769-2.68-.459-.086-.914-.177-1.51-.127.032-2.543-.092-4.925-.502-7.02 2.225-.296 4.988-.044 7.423-.128.435-.102.483.19.88.128 1.582.012 3.25-.064 4.655.127.286.392.218 1.14.629 1.404.29.385.628.726 1.006 1.021 1.7.264 3.262-.093 5.033.128 1.315-.112 2.478-.378 3.27-1.02.667-.346.87-1.161 1.385-1.66.653-.187 1.56-.118 2.39-.128 2.93-.472 5.733-1.075 9.059-1.148.202.036.216-.12.377-.129h.881c.402.87.227 2.324.376 3.447.075 1.158.163 2.305.253 3.447-.386.123-1.404-.07-2.013-.128-.595.183-1.025.171-1.635.382-.133.047-.286.219-.378.256-.207.084-.416.027-.63.127-.349.165-.656.57-1.13.766-.413.56-.592 1.36-1.134 1.787zM4.825 23.259c.1.068.204.133.378.128.124.697-.496.895-.756.51.04-.3.437-.238.378-.638zm7.17 0c.47.097.07.606-.377.511-.11-.41.415-.176.378-.511zm6.544 2.043c.005-.932.616-1.247.755-2.043.926.091 1.559-.12 2.264-.256 1.597.353 2.646-.408 4.277-.381.077.73.528 1.08.755 1.658.085.724-.115 1.16-.25 1.66-1.708.567-3.622.922-5.663 1.148-.582-.091-.831-.518-1.132-.893-.433-.2-.878-.386-1.006-.893zm23.274 11.742c-.643.344-1.392.019-2.139 0-.962-.026-1.965.234-2.767 0-.02-1.297.74-1.8 1.257-2.553 1.154-.208 2.595-.603 3.901-.256-.002 1.022.067 2.11-.252 2.809zm-9.435-14.295H29.86c-.161.007-.174.162-.378.127-.573.015-.513.67-1.006.767-.13-1.059-.36-2.018-.754-2.81-.62-.518-1.6-.672-2.643-.764-1.405.149-2.567.543-3.9.765-1.085.08-1.795-.221-2.894-.127-.534.18-1.012.418-1.384.766-.066.783.143 1.848-.126 2.425h-.879c-.498.163-.306-.372-.63-.383-.435.154-.944.233-1.509.256-.434-.2-.544-.725-.756-1.148-.575-.116-.713.211-1.132.254.03-.54-.01-1.011-.378-1.148-1.22.252-1.524 1.433-2.768 1.658.043-.297.13-.549.377-.637-.518-.265-.531-.602-.25-1.148-.524-.407-.754.367-1.258.382.263-.328.338-.849.502-1.277-.029-.182-.207-.216-.251-.382-1.083-.122-1.178.762-2.013.893.117-.8-.476-.88-.757-1.277.142-.54.402-.955.506-1.532-.084-.568-.783-.23-1.007-.382.161-.512.64-1.255.25-1.915-.424-.048-.536.222-.754.383-.279-.055-.314.767-.503.383-.014-.739.552-.887.63-1.531.397-.22.72-1.046.25-1.405-.74.1-1.001.685-1.509 1.02.013.156-.183.08 0 0 .256-.717.573-1.374.88-2.04.317-.557 1.026-1.16.63-2.044-.552-.133-.413.433-.88.384-.015-.156-.038-.301-.252-.255-.552-.134-.414.431-.882.382V10.24c3.552-1.14 8.668-.006 12.707-.51h2.139c2.815-.208 5.714-.33 8.681-.384 3.442-.21 7.033-.27 10.695-.255 1.571-.224 2.897-.01 4.654-.127.546 1.022.629 2.51 1.006 3.702-.177 3.286.67 5.531.629 8.679-3.388.605-7.202.776-10.566 1.404z"/>
</svg>
